<svg width="420" height="320" viewBox="0 0 420 320" fill="none" xmlns="http://www.w3.org/2000/svg">
<rect width="420" height="320" rx="22" fill="white"/>
<g filter="url(#shadow)">
<rect x="60" y="60" width="300" height="180" rx="14" fill="#F8FAFC"/>
<rect x="75" y="80" width="270" height="12" rx="6" fill="#E2E8F0"/>
<rect x="75" y="110" width="180" height="12" rx="6" fill="#CBD5E1"/>
<rect x="75" y="140" width="240" height="12" rx="6" fill="#CBD5E1"/>
<rect x="75" y="170" width="200" height="12" rx="6" fill="#CBD5E1"/>
</g>

<g filter="url(#shadow)">
<rect x="260" y="200" width="90" height="60" rx="10" fill="#E0F2FE"/>
<rect x="275" y="220" width="60" height="8" rx="4" fill="#38BDF8"/>
<rect x="275" y="240" width="40" height="8" rx="4" fill="#7DD3FC"/>
</g>

<g filter="url(#shadow)">
<rect x="70" y="200" width="90" height="60" rx="10" fill="#F1F5F9"/>
<rect x="85" y="220" width="60" height="8" rx="4" fill="#94A3B8"/>
<rect x="85" y="240" width="40" height="8" rx="4" fill="#CBD5E1"/>
</g>

<defs>
<filter id="shadow" x="0" y="0" width="420" height="320" filterUnits="userSpaceOnUse">
<feDropShadow dx="0" dy="4" stdDeviation="12" flood-opacity="0.15"/>
</filter>
</defs>
</svg>
